<?xml version="1.0" encoding="utf-8"?>
<!-- Generator: Adobe Illustrator 16.0.4, SVG Export Plug-In . SVG Version: 6.00 Build 0)  -->
<!DOCTYPE svg PUBLIC "-//W3C//DTD SVG 1.1//EN" "http://www.w3.org/Graphics/SVG/1.1/DTD/svg11.dtd">
<svg version="1.1" id="Layer_1" xmlns="http://www.w3.org/2000/svg" xmlns:xlink="http://www.w3.org/1999/xlink" x="0px" y="0px"
	 width="1468.965px" height="1286.207px" viewBox="0 0 1468.965 1286.207" enable-background="new 0 0 1468.965 1286.207"
	 xml:space="preserve">
<circle fill="none" stroke="#FFFFFF" stroke-width="18" stroke-miterlimit="10" cx="723.242" cy="397.551" r="341.38"/>
<circle fill="none" stroke="#FFFFFF" stroke-width="18" stroke-miterlimit="10" cx="722.69" cy="398.103" r="309.828"/>
<line fill="none" stroke="#FFFFFF" stroke-width="18" stroke-miterlimit="10" x1="525.379" y1="637.654" x2="919.379" y2="637.654"/>
<g>
	<path fill="none" stroke="#FFFFFF" stroke-width="18" stroke-miterlimit="10" d="M588.379,387.908v143.539V387.908z"/>
	<path fill="none" stroke="#FFFFFF" stroke-width="18" stroke-miterlimit="10" d="M804.379,386.654v143.539V386.654z"/>
	<path fill="none" stroke="#FFFFFF" stroke-width="18" stroke-miterlimit="10" d="M750.379,386.654v143.539V386.654z"/>
	<path fill="none" stroke="#FFFFFF" stroke-width="18" stroke-miterlimit="10" d="M696.379,386.654v143.539V386.654z"/>
	<path fill="none" stroke="#FFFFFF" stroke-width="18" stroke-miterlimit="10" d="M642.379,386.654v143.539V386.654z"/>
	<path fill="none" stroke="#FFFFFF" stroke-width="18" stroke-miterlimit="10" d="M858.379,386.654v143.539V386.654z"/>
</g>
<path fill="none" stroke="#FFFFFF" stroke-width="18" stroke-miterlimit="10" d="M927.663,386.654
	c-26.543-52-107.031-88.276-202.214-88.276s-175.671,36.276-202.214,88.276H927.663z"/>
<line fill="none" stroke="#FFFFFF" stroke-width="18" stroke-miterlimit="10" x1="548.379" y1="532.654" x2="903.379" y2="532.654"/>
<rect x="240.535" y="777.206" fill="none" width="1069.811" height="154.726"/>
<text transform="matrix(1 0 0 1 255.2822 861.2451)" fill="#FFFFFF" font-family="'LucidaGrande-Bold'" font-size="109" letter-spacing="23">SAVE A CHILD</text>
<rect x="544.828" y="901.724" fill="none" width="379.311" height="160.345"/>
<text transform="matrix(1 0 0 1 662.8252 936.418)" fill="#FFFFFF" font-family="'LucidaGrande'" font-size="45" letter-spacing="7">FUND</text>
</svg>
